# xmcd CD database file
#
# Track frame offsets:
#	150
#	19275
#	46010
#
# Disc length: 867 seconds
#
# Revision: 0
# Processed by: cddbd v1.5PL3 Copyright (c) Steve Scherf et al.
# Submitted via: CDex 1.51
#
DISCID=1a036103
DTITLE=W's - 1999
DYEAR=1997
DGENRE=Vocal
TTITLE0=1999
TTITLE1=Asian Girl (TUKUTUKU MIX)
TTITLE2=1999 (ORIGINAL KARAOKE)
EXTD=YEAR: 1997
EXTT0=
EXTT1=
EXTT2=
PLAYORDER=
